<svg width="368" height="50" viewBox="0 0 368 50" fill="none" xmlns="http://www.w3.org/2000/svg">
<g clip-path="url(#clip0)">
<path d="M34.56 2.40072V13.6647C31.7867 10.2514 28.2453 8.54472 23.936 8.54472C19.584 8.54472 16.064 10.2727 13.376 13.7287C10.944 16.8861 9.728 20.7047 9.728 25.1847C9.728 29.5367 10.9867 33.27 13.504 36.3847C16.192 39.7554 19.648 41.4407 23.872 41.4407C28.0533 41.4407 31.616 39.7341 34.56 36.3207V47.5207C30.464 49.4407 26.816 50.4007 23.616 50.4007C16.832 50.4007 11.1787 47.9047 6.656 42.9127C2.21867 38.0487 0 32.2034 0 25.3767C0 18.2941 2.176 12.278 6.528 7.32872C11.0507 2.16605 16.8107 -0.415283 23.808 -0.415283C27.4773 -0.415283 31.0613 0.523383 34.56 2.40072Z" fill="white"/>
<path d="M50.2122 19.8727H67.6202V0.864716H77.0282V49.1207H67.6202V27.5527H50.2122V49.1207H40.8042V0.864716H50.2122V19.8727Z" fill="white"/>
<path d="M110.553 38.9447H93.785L89.817 49.1207H79.897L98.713 -0.415283H106.009L124.313 49.1207H114.265L110.553 38.9447ZM107.929 31.2647L101.913 13.7287L96.473 31.2647H107.929Z" fill="white"/>
<path d="M136.587 0.864716V40.9287H149.899V49.1207H127.179V0.864716H136.587Z" fill="white"/>
<path d="M162.337 0.864716V40.9287H175.649V49.1207H152.929V0.864716H162.337Z" fill="white"/>
<path d="M200.247 50.4007C193.25 50.4007 187.49 47.8834 182.967 42.8487C178.572 37.942 176.375 31.9687 176.375 24.9287C176.375 17.9314 178.594 12.0007 183.031 7.13672C187.596 2.10205 193.335 -0.415283 200.247 -0.415283C207.159 -0.415283 212.898 2.10205 217.463 7.13672C221.9 12.0007 224.119 17.9314 224.119 24.9287C224.119 31.9687 221.922 37.942 217.527 42.8487C213.004 47.8834 207.244 50.4007 200.247 50.4007ZM200.247 8.86472C196.194 8.86472 192.78 10.4861 190.007 13.7287C187.404 16.8007 186.103 20.4061 186.103 24.5447C186.103 28.5127 187.447 32.2034 190.135 35.6167C193.036 39.286 196.407 41.1207 200.247 41.1207C204.087 41.1207 207.458 39.286 210.359 35.6167C213.047 32.2034 214.391 28.5127 214.391 24.5447C214.391 20.4487 213.068 16.8434 210.423 13.7287C207.65 10.4861 204.258 8.86472 200.247 8.86472Z" fill="white"/>
<path d="M228.679 49.1207V-0.415283H235.463L260.871 33.3127L260.999 0.864717H270.407V50.0807H263.623L238.215 16.3527L238.087 49.1207H228.679Z" fill="white"/>
<path d="M299.128 23.4567H319.928V24.6727C319.928 32.0541 318.157 38.07 314.616 42.7207C310.691 47.8407 305.144 50.4007 297.976 50.4007C291.107 50.4007 285.517 47.8834 281.208 42.8487C277.069 38.0274 275 32.1394 275 25.1847C275 18.0167 277.112 12.0221 281.336 7.20072C285.731 2.12338 291.469 -0.415283 298.552 -0.415283C302.648 -0.415283 306.381 0.608717 309.752 2.65672C313.165 4.66205 315.789 7.47805 317.624 11.1047L309.304 15.5847C308.323 13.3234 306.829 11.4887 304.824 10.0807C302.861 8.63005 300.685 7.90472 298.296 7.90472C294.029 7.90472 290.616 9.78205 288.056 13.5367C285.837 16.8647 284.728 20.7474 284.728 25.1847C284.728 29.6647 285.859 33.5047 288.12 36.7047C290.68 40.2887 294.093 42.0807 298.36 42.0807C301.304 42.0807 303.864 40.9927 306.04 38.8167C308.259 36.6407 309.368 34.0807 309.368 31.1367H299.128V23.4567Z" fill="white"/>
<path d="M349.514 9.05672H333.962V19.6807H348.938V27.8727H333.962V40.9287H349.514V49.1207H324.554V0.864716H349.514V9.05672Z" fill="white"/>
<path d="M362.716 39.0087C364.337 39.0087 365.681 39.542 366.748 40.6087C367.857 41.6754 368.412 43.0194 368.412 44.6407C368.412 46.2194 367.857 47.5847 366.748 48.7367C365.639 49.8461 364.295 50.4007 362.716 50.4007C361.095 50.4007 359.729 49.8461 358.62 48.7367C357.553 47.6274 357.02 46.262 357.02 44.6407C357.02 43.062 357.575 41.7394 358.684 40.6727C359.793 39.5634 361.137 39.0087 362.716 39.0087ZM358.172 35.2327V0.864716H367.26V35.2327H358.172Z" fill="white"/>
</g>
<defs>
<clipPath id="clip0">
<rect width="368" height="50" fill="white"/>
</clipPath>
</defs>
</svg>
